<?xml version="1.0" encoding="utf-8"?>
<!-- Generator: Adobe Illustrator 23.0.3, SVG Export Plug-In . SVG Version: 6.00 Build 0)  -->
<svg version="1.1" id="Camada_1" xmlns="http://www.w3.org/2000/svg" xmlns:xlink="http://www.w3.org/1999/xlink" x="0px" y="0px"
	 viewBox="0 0 475.56 126.63" style="enable-background:new 0 0 475.56 126.63;" xml:space="preserve">
<style type="text/css">
	.st0{stroke:#000000;stroke-width:0.6229;stroke-miterlimit:10;}
	.st1{font-family:'BubbbleGumBold';}
	.st2{font-size:115.0135px;}
	.st3{letter-spacing:-3;}
	.st4{font-size:82.2233px;}
	.st5{letter-spacing:-2;}
</style>
<g>
	<text transform="matrix(1 0 0 1 0.3115 99.6312)"><tspan x="0" y="0" class="st0 st1 st2 st3">M</tspan><tspan x="95.92" y="0" class="st0 st1 st4 st5">y</tspan><tspan x="137.61" y="0" class="st0 st1 st2 st3">Class</tspan></text>
	<g>
		<path d="M471.19,65.94c1.3-0.35,2.06-1.69,1.71-2.99L456.23,1.8c-0.35-1.3-1.69-2.06-2.99-1.71l-22.26,6.07
			c-2.39-2.55-6.08-3.73-9.68-2.75l-7.06,1.92c-1.3,0.35-2.06,1.69-1.71,2.99l0.73,2.67l-11.76,3.21c-3.89,1.06-6.19,5.09-5.13,8.98
			l16.68,61.15c1.06,3.89,5.09,6.19,8.98,5.13l51.74-14.11c1.3-0.35,2.06-1.69,1.71-2.99c-0.35-1.3-1.69-2.06-2.99-1.71l-2.35,0.64
			l-1.28-4.7L471.19,65.94z M467.56,61.87l-20.08,5.48c0.43-1.6,0.45-3.34-0.02-5.05l-1.28-4.7l11.76-3.21
			c1.3-0.35,2.06-1.69,1.71-2.99c-0.35-1.3-1.69-2.06-2.99-1.71L444.9,52.9l-1.28-4.7l11.76-3.21c1.3-0.35,2.06-1.69,1.71-2.99
			c-0.35-1.3-1.69-2.06-2.99-1.71l-11.76,3.21l-1.28-4.7l11.76-3.21c1.3-0.35,2.06-1.69,1.71-2.99c-0.35-1.3-1.69-2.06-2.99-1.71
			l-11.76,3.21l-1.28-4.7l11.76-3.21c1.3-0.35,2.06-1.69,1.71-2.99l-2.57-9.41c-0.35-1.3-1.69-2.06-2.99-1.71l-11.76,3.21l-1.28-4.7
			l18.81-5.13L467.56,61.87z M435.92,19.97l9.41-2.57l1.28,4.7l-9.41,2.57L435.92,19.97z M417.87,9.39l4.7-1.28
			c2.97-0.81,5.4,1.27,5.99,3.42l11.98,43.91c-1.6-0.43-3.34-0.45-5.05,0.02l-4.7,1.28L417.87,9.39z M402.78,18.9l11.76-3.21
			l12.19,44.68c0.35,1.3,1.69,2.06,2.99,1.71l7.06-1.92c2.59-0.71,5.28,0.83,5.99,3.42s-0.83,5.28-3.42,5.99l-21.17,5.77
			c-0.82,0.22-1.58,0.58-2.24,1.05l-14.86-54.5C400.71,20.6,401.48,19.26,402.78,18.9L402.78,18.9z M465.42,72.56l-44.68,12.19
			c-1.3,0.35-2.64-0.41-2.99-1.71c-0.35-1.3,0.41-2.64,1.71-2.99l44.68-12.19L465.42,72.56z M465.42,72.56"/>
	</g>
</g>
</svg>
