<?xml version="1.0" encoding="utf-8"?>
<!-- Generator: Adobe Illustrator 23.0.3, SVG Export Plug-In . SVG Version: 6.00 Build 0)  -->
<svg version="1.1" id="Camada_1" xmlns="http://www.w3.org/2000/svg" xmlns:xlink="http://www.w3.org/1999/xlink" x="0px" y="0px"
	 viewBox="0 0 1081.01 401.74" style="enable-background:new 0 0 1081.01 401.74;" xml:space="preserve">
<style type="text/css">
	.st0{fill:#FFFFFF;}
	.st1{fill:#FFFFFF;stroke:#FFFFFF;stroke-width:7.606;stroke-miterlimit:10;}
</style>
<g>
	<path class="st0" d="M194.47,316.83V192.08l-61.12,71.71c-0.3,0.35-0.66,0.62-0.98,0.94c-0.32,0.32-0.58,0.67-0.93,0.97
		c-0.09,0.08-0.2,0.13-0.29,0.2c-0.5,0.41-1.03,0.74-1.56,1.08c-0.42,0.27-0.83,0.57-1.27,0.8c-0.52,0.27-1.06,0.47-1.6,0.69
		c-0.49,0.2-0.98,0.42-1.48,0.57c-0.53,0.16-1.06,0.23-1.6,0.34c-0.54,0.11-1.07,0.23-1.61,0.29c-0.55,0.05-1.09,0.03-1.65,0.03
		c-0.53,0-1.07,0.02-1.6-0.03c-0.56-0.06-1.1-0.19-1.65-0.29c-0.52-0.1-1.04-0.17-1.56-0.33c-0.52-0.15-1.01-0.38-1.51-0.58
		c-0.53-0.22-1.06-0.41-1.57-0.67c-0.45-0.24-0.86-0.54-1.29-0.82c-0.52-0.34-1.05-0.67-1.54-1.07c-0.1-0.08-0.2-0.12-0.29-0.21
		c-0.35-0.3-0.62-0.66-0.94-0.98c-0.32-0.32-0.67-0.58-0.97-0.93l-61.16-71.73v124.76c0,9.4-7.62,17.01-17.02,17.01
		c-9.4,0-17.01-7.62-17.01-17.01V145.88c0-7.13,4.44-13.5,11.13-15.96c6.69-2.46,14.21-0.49,18.83,4.93l78.17,91.68l78.14-91.68
		c4.62-5.43,12.14-7.39,18.83-4.93c6.69,2.47,11.14,8.84,11.14,15.96v170.95c0,9.4-7.62,17.02-17.02,17.02
		c-9.4,0-17.01-7.62-17.01-17.02H194.47z"/>
	<path class="st0" d="M366.21,219.38l-44.8,104.99c-0.08,0.2-0.2,0.37-0.29,0.56l-28.57,66.82c-2.66,6.21-8.71,9.94-15.06,9.94
		c-2.15,0-4.33-0.43-6.43-1.32c-8.31-3.56-12.17-13.18-8.62-21.5l26.08-61l-42.03-98.5c-3.55-8.32,0.32-17.94,8.64-21.49
		c8.32-3.55,17.94,0.32,21.49,8.64l29.73,69.67l10.58-24.76l19.16-44.91c3.55-8.32,13.18-12.18,21.49-8.64
		C365.88,201.44,369.75,211.06,366.21,219.38z"/>
	<path class="st0" d="M434.38,182.96c-26.69,26.69-26.69,70.12,0,96.8c26.69,26.69,70.11,26.69,96.8,0c6.65-6.64,17.42-6.64,24.06,0
		c6.64,6.64,6.64,17.42,0,24.06c-19.36,19.35-45.09,30.01-72.46,30.01c-27.37,0-53.11-10.66-72.46-30.01
		c-19.35-19.36-30.01-45.09-30.01-72.46c0-27.38,10.66-53.11,30.01-72.47c39.96-39.95,104.97-39.96,144.93,0
		c6.64,6.64,6.64,17.42,0,24.06c-6.65,6.64-17.42,6.64-24.06,0C504.49,156.27,461.07,156.27,434.38,182.96z"/>
	<path class="st0" d="M609.76,145.58v172.37c0,9.04-7.33,16.37-16.37,16.37c-9.04,0-16.37-7.33-16.37-16.37V145.58
		c0-9.04,7.33-16.38,16.37-16.38C602.43,129.2,609.76,136.53,609.76,145.58z"/>
	<path class="st0" d="M761.46,265.45c0,0.02,0,52.48,0,52.49c0,9.04-7.33,16.37-16.37,16.37c-7.13,0-13.13-4.58-15.38-10.94
		c-10.73,6.9-23.45,10.95-37.12,10.95c-37.98,0-68.87-30.89-68.87-68.87c0-37.97,30.89-68.87,68.87-68.87
		c13.67,0,26.39,4.05,37.11,10.95c2.25-6.36,8.25-10.95,15.38-10.95c9.04,0,16.37,7.33,16.37,16.37v52.46
		C761.46,265.43,761.46,265.44,761.46,265.45z M728.7,265.42c-0.02-19.9-16.21-36.08-36.12-36.08c-19.92,0-36.12,16.2-36.12,36.12
		c0,19.92,16.2,36.12,36.12,36.12c19.9,0,36.1-16.18,36.12-36.09V265.42z"/>
	<path class="st0" d="M874.22,287.62c2.1,13.48-3.58,26.95-15.21,36.03c0,0.01-0.01,0.01-0.01,0.01
		c-9.15,7.14-20.88,10.71-32.62,10.71c-11.74,0-23.47-3.57-32.62-10.71c0,0-0.01,0-0.01-0.01c-9.94-7.76-15.64-18.88-15.64-30.52
		c0-9.04,7.33-16.37,16.38-16.37c9.04,0,16.37,7.33,16.37,16.37c0,1.48,1.11,3.2,3.04,4.71c0,0,0,0,0,0c6.53,5.09,18.41,5.1,24.93,0
		c0,0,0,0,0,0c1.56-1.21,3.34-3.09,3.01-5.18c-0.3-1.91-2.45-4.81-7.52-6.68l-27.39-10.39c-15.48-5.71-26.14-17.81-28.4-32.31
		c-2.1-13.49,3.58-26.95,15.21-36.04c0,0,0.01-0.01,0.01-0.01c18.3-14.28,46.95-14.28,65.24,0.01c9.94,7.76,15.64,18.88,15.64,30.52
		c0,9.04-7.33,16.37-16.37,16.37s-16.37-7.33-16.37-16.37c0-1.48-1.11-3.2-3.04-4.71c-6.53-5.1-18.41-5.1-24.94,0l0,0
		c-1.55,1.21-3.33,3.09-3.01,5.18c0.3,1.92,2.45,4.82,7.52,6.69l27.39,10.39C861.28,261.02,871.95,273.12,874.22,287.62z"/>
	<path class="st0" d="M979.58,287.62c2.1,13.48-3.58,26.95-15.21,36.03c0,0.01-0.01,0.01-0.01,0.01
		c-9.15,7.14-20.88,10.71-32.62,10.71c-11.74,0-23.47-3.57-32.62-10.71c0,0-0.01,0-0.01-0.01c-9.94-7.76-15.64-18.88-15.64-30.52
		c0-9.04,7.33-16.37,16.38-16.37c9.04,0,16.37,7.33,16.37,16.37c0,1.48,1.11,3.2,3.04,4.71c0,0,0,0,0,0c6.53,5.09,18.41,5.1,24.93,0
		c0,0,0,0,0,0c1.56-1.21,3.34-3.09,3.01-5.18c-0.3-1.91-2.45-4.81-7.52-6.68l-27.39-10.39c-15.48-5.71-26.14-17.81-28.4-32.31
		c-2.1-13.49,3.58-26.95,15.21-36.04c0,0,0.01-0.01,0.01-0.01c18.3-14.28,46.95-14.28,65.24,0.01c9.94,7.76,15.64,18.88,15.64,30.52
		c0,9.04-7.33,16.37-16.37,16.37s-16.37-7.33-16.37-16.37c0-1.48-1.11-3.2-3.04-4.71c-6.53-5.1-18.41-5.1-24.94,0l0,0
		c-1.55,1.21-3.33,3.09-3.01,5.18c0.3,1.92,2.45,4.82,7.52,6.69l27.39,10.39C966.65,261.02,977.32,273.12,979.58,287.62z"/>
</g>
<g>
	<path class="st1" d="M1056.66,86.01h-7.31V24.36c0-11.33-9.22-20.55-20.55-20.55H863.92c-11.33,0-20.55,9.22-20.55,20.55v109.62
		c0,11.33,9.22,20.55,20.55,20.55h6.85v34.25c0,2.77,1.67,5.27,4.23,6.33c2.56,1.06,5.51,0.47,7.47-1.49l39.1-39.1h31.87v6.85
		c0,11.33,9.22,20.55,20.55,20.55h38.27l25.4,25.4c1.96,1.97,4.91,2.55,7.47,1.49c2.56-1.06,4.23-3.56,4.23-6.33v-20.55h7.31
		c11.33,0,20.55-9.22,20.55-20.55v-54.81C1077.21,95.24,1067.99,86.01,1056.66,86.01L1056.66,86.01z M918.73,140.82
		c-1.82,0-3.56,0.72-4.84,2.01l-29.41,29.41v-24.57c0-3.78-3.07-6.85-6.85-6.85h-13.7c-3.78,0-6.85-3.07-6.85-6.85V24.36
		c0-3.78,3.07-6.85,6.85-6.85h164.88c3.78,0,6.85,3.07,6.85,6.85v61.66h-61.66c-11.33,0-20.55,9.22-20.55,20.55v34.25H918.73z
		 M1063.51,161.38c0,3.78-3.07,6.85-6.85,6.85h-14.16c-3.78,0-6.85,3.07-6.85,6.85v10.86l-15.71-15.71
		c-1.28-1.29-3.03-2.01-4.84-2.01h-41.11c-3.78,0-6.85-3.07-6.85-6.85v-54.81c0-3.78,3.07-6.85,6.85-6.85h82.67
		c3.78,0,6.85,3.07,6.85,6.85V161.38z M1063.51,161.38"/>
	<path class="st1" d="M1023.95,122.27l-15.71,15.71l-5.43-5.43c-2.67-2.67-7.01-2.67-9.69,0c-2.67,2.68-2.67,7.02,0,9.69
		l10.28,10.28c1.34,1.34,3.09,2.01,4.85,2.01s3.51-0.67,4.84-2.01l20.55-20.55c2.68-2.67,2.68-7.01,0-9.69
		C1030.97,119.6,1026.63,119.6,1023.95,122.27L1023.95,122.27z M1023.95,122.27"/>
	<path class="st1" d="M932.88,99.72h-41.56c-3.78,0-6.85,3.07-6.85,6.85c0,3.78,3.07,6.85,6.85,6.85h41.56
		c3.78,0,6.85-3.07,6.85-6.85C939.74,102.78,936.67,99.72,932.88,99.72L932.88,99.72z M932.88,99.72"/>
	<path class="st1" d="M946.59,72.31h-55.26c-3.78,0-6.85,3.07-6.85,6.85c0,3.78,3.07,6.85,6.85,6.85h55.26
		c3.78,0,6.85-3.07,6.85-6.85C953.44,75.38,950.37,72.31,946.59,72.31L946.59,72.31z M946.59,72.31"/>
	<path class="st1" d="M891.32,58.61h110.07c3.78,0,6.85-3.07,6.85-6.85s-3.07-6.85-6.85-6.85H891.32c-3.78,0-6.85,3.07-6.85,6.85
		S887.54,58.61,891.32,58.61L891.32,58.61z M891.32,58.61"/>
</g>
</svg>
